<svg version="1.2" xmlns="http://www.w3.org/2000/svg" viewBox="0 0 119 28" width="119" height="28">
	<title>Group 24-svg</title>
	<style>
		.s0 { fill: #14a800 } 
		.s1 { fill: #ffffff } 
		.s2 { fill: #116e04 } 
	</style>
	<path id="Layer" class="s0" d="m0 13c0-7.2 5.8-13 13-13h40.8c7.2 0 13 5.8 13 13v2c0 7.2-5.8 13-13 13h-40.8c-7.2 0-13-5.8-13-13z"/>
	<path id="Layer" fill-rule="evenodd" class="s1" d="m10.9 21.8v-13h-4.6v-3.5h13.5v3.5h-4.7v13zm15.5-12.8q2.5 0 4 0.5 1.5 0.5 2.2 1.9 0.8 1.4 0.8 4v6.4h-3.8l-0.1-1.2h-0.1q-0.5 0.6-1.5 1-1.1 0.4-2.8 0.4-4.4 0-4.4-4.2 0-1.8 1.1-2.8 1.2-1.1 3.8-1.1h3.8q-0.2-1.1-0.9-1.4-0.8-0.4-2.6-0.4-1.1 0-2.3 0.2-1.1 0.1-1.9 0.3h-0.1l0.1-3q0.5-0.2 1.3-0.3 0.8-0.2 1.7-0.2 0.9-0.1 1.7-0.1zm-0.2 9.9q1.6 0 2.4-0.4 0.8-0.4 0.9-1.3v-0.6h-3q-1.1 0-1.6 0.3-0.4 0.3-0.4 0.9 0 0.6 0.4 0.9 0.5 0.2 1.3 0.2zm9.3-0.7q2 0.5 4.5 0.5 1.2 0 1.8 0 0.6-0.1 0.8-0.3 0.2-0.2 0.2-0.5 0-0.4-0.3-0.5-0.3-0.1-1.3-0.3l-2-0.4q-2-0.4-2.9-1.2-0.9-0.9-0.9-2.6 0-2.3 1.4-3.1 1.4-0.8 4.4-0.8 1.7 0 3.1 0.2 1.4 0.2 2.3 0.4l-0.1 3.2v0.1q-2.1-0.7-4.6-0.7-1.3 0-1.8 0.2-0.4 0.1-0.4 0.6 0 0.3 0.1 0.4 0.2 0.2 0.7 0.4 0.5 0.1 1.6 0.3l1.9 0.4q1.6 0.3 2.4 1.1 0.7 0.8 0.7 2.4 0 1.5-0.5 2.4-0.6 0.9-1.9 1.2-1.3 0.4-3.5 0.4-1.7 0-3.2-0.2-1.4-0.1-2.6-0.4v-3.2zm18 3.6h-4.2v-17.5h4.2v10.2l3.3-5.3h4.6v0.1l-3.8 5.9v0.1l4.4 6.5h-4.8l-3.6-5.8-0.1-0.1z"/>
	<path id="Layer" fill-rule="evenodd" class="s2" d="m75.3 21.8h-4.2v-16.5h4.2v6.3h6.2v-6.3h4.2v16.5h-4.2v-6.8h-6.2zm17.6 0.2q-2.3 0-3.4-1.3-1-1.2-1-3.6v-8h4.2v7q0 1.2 0.4 1.7 0.4 0.4 1.7 0.4 1.2 0 1.7-0.4 0.4-0.4 0.4-1.5v-7.2h4.2v12.7h-4l-0.2-1.4h-0.1q-0.3 0.7-1.3 1.2-1.1 0.4-2.6 0.4zm24.1-7.1q0 3.5-1.4 5.3-1.4 1.8-4.9 1.8-1.9 0-3.5-0.1-1.7-0.2-2.9-0.4h-0.1v-17.2h4.2v6.8h0.1q0.3-1 1.2-1.5 0.8-0.6 2.4-0.6 4.9 0 4.9 5.9zm-8.6 0.4v3.1q0.6 0.1 1.4 0.1 1.2 0 1.9-0.2 0.7-0.3 1-0.9 0.3-0.7 0.3-1.9 0-1.5-0.5-2.2-0.4-0.8-1.8-0.8-1 0-1.7 0.7-0.6 0.6-0.6 2.1z"/>
</svg>